<svg id="visual" viewBox="0 0 960 540" width="960" height="540" xmlns="http://www.w3.org/2000/svg" xmlns:xlink="http://www.w3.org/1999/xlink" version="1.1"><rect x="0" y="0" width="960" height="540" fill="#001220"></rect><defs><linearGradient id="grad1_0" x1="43.8%" y1="0%" x2="100%" y2="100%"><stop offset="14.444444444444446%" stop-color="#001220" stop-opacity="1"></stop><stop offset="85.55555555555554%" stop-color="#001220" stop-opacity="1"></stop></linearGradient></defs><defs><linearGradient id="grad2_0" x1="0%" y1="0%" x2="56.3%" y2="100%"><stop offset="14.444444444444446%" stop-color="#001220" stop-opacity="1"></stop><stop offset="85.55555555555554%" stop-color="#001220" stop-opacity="1"></stop></linearGradient></defs><g transform="translate(960, 0)"><path d="M0 459C-49 444.7 -98 430.3 -129.8 399.4C-161.6 368.5 -176.3 321.1 -219.8 302.6C-263.4 284.1 -335.9 294.5 -371.3 269.8C-406.8 245.1 -405.3 185.2 -413.7 134.4C-422.2 83.6 -440.6 41.8 -459 0L0 0Z" fill="#4e4e4e"></path></g><g transform="translate(0, 540)"><path d="M0 -459C38.3 -430.3 76.6 -401.6 128.2 -394.7C179.9 -387.8 244.9 -402.6 269.8 -371.3C294.7 -340.1 279.6 -262.8 301.8 -219.2C323.9 -175.7 383.2 -166 415.6 -135C448 -104.1 453.5 -52.1 459 0L0 0Z" fill="#4e4e4e"></path></g></svg>